<svg width="39" height="37" viewBox="0 0 39 37" fill="none" xmlns="http://www.w3.org/2000/svg">
<rect width="39" height="37" fill="#E5E5E5"/>
<g clip-path="url(#clip0_0_1)">
<rect width="1920" height="80" transform="translate(-294 -15)" fill="white"/>
<g filter="url(#filter0_d_0_1)">
<rect x="-294" y="-15" width="1920" height="80" fill="url(#paint0_radial_0_1)" shape-rendering="crispEdges"/>
</g>
<path d="M18.5772 36.0748L31.7843 26.9561C32.5883 26.4 33.0372 25.5018 33.0502 24.5846L33.1986 15.6175C33.2197 14.341 32.4417 13.1924 31.2565 12.7505L22.9304 9.64593C22.0795 9.32635 21.0885 9.42425 20.2846 9.9804L7.09391 19.1233L18.6431 23.5815L18.5772 36.0748Z" fill="#F95C19"/>
<path d="M20.5266 9.74233L7.24176 18.9146C6.4331 19.4741 5.98158 20.3775 5.96846 21.3002L5.81896 30.3325C5.79783 31.609 6.5759 32.7576 7.76111 33.1995L16.1478 36.3267C17.0037 36.6481 18.0005 36.5497 18.8092 35.9902L32.0774 26.7935L22.382 23.0509C21.2251 22.6044 20.4647 21.4818 20.4713 20.2303L20.5266 9.74233Z" fill="#CA3E02"/>
</g>
<defs>
<filter id="filter0_d_0_1" x="-314" y="-35" width="1960" height="120" filterUnits="userSpaceOnUse" color-interpolation-filters="sRGB">
<feFlood flood-opacity="0" result="BackgroundImageFix"/>
<feColorMatrix in="SourceAlpha" type="matrix" values="0 0 0 0 0 0 0 0 0 0 0 0 0 0 0 0 0 0 127 0" result="hardAlpha"/>
<feOffset/>
<feGaussianBlur stdDeviation="10"/>
<feComposite in2="hardAlpha" operator="out"/>
<feColorMatrix type="matrix" values="0 0 0 0 0 0 0 0 0 0 0 0 0 0 0 0 0 0 0.05 0"/>
<feBlend mode="normal" in2="BackgroundImageFix" result="effect1_dropShadow_0_1"/>
<feBlend mode="normal" in="SourceGraphic" in2="effect1_dropShadow_0_1" result="shape"/>
</filter>
<radialGradient id="paint0_radial_0_1" cx="0" cy="0" r="1" gradientUnits="userSpaceOnUse" gradientTransform="translate(-278 -15.0003) rotate(2.40597) scale(1905.68 8006.94)">
<stop stop-color="#FFE5A2" stop-opacity="0.7"/>
<stop offset="1" stop-color="#FCFF6C" stop-opacity="0.15"/>
</radialGradient>
<clipPath id="clip0_0_1">
<rect width="1920" height="80" fill="white" transform="translate(-294 -15)"/>
</clipPath>
</defs>
</svg>
